<svg xmlns="http://www.w3.org/2000/svg" xmlns:xlink="http://www.w3.org/1999/xlink" width="1920" height="1080" viewBox="0 0 1920 1080">
  <defs>
    <linearGradient id="linear-gradient" x1="1.183" y1="-0.023" x2="0.453" y2="0.938" gradientUnits="objectBoundingBox">
      <stop offset="0" stop-color="#201bc2"/>
      <stop offset="1" stop-color="#9a2ad1"/>
    </linearGradient>
    <clipPath id="clip-Sample6">
      <rect width="1920" height="1080"/>
    </clipPath>
  </defs>
  <g id="Sample6" clip-path="url(#clip-Sample6)">
    <rect width="1920" height="1080" fill="#fff"/>
    <path id="Rectangle_10" data-name="Rectangle 10" d="M496,0h0A496,496,0,0,1,992,496v863a0,0,0,0,1,0,0H0a0,0,0,0,1,0,0V496A496,496,0,0,1,496,0Z" transform="translate(1523.961 1261.953) rotate(-147)" fill="#e3d8e6"/>
    <path id="Subtraction_1" data-name="Subtraction 1" d="M-12086.948,1275.383c-3.236,0-5.9-1.866-8.131-5.7-1.545-2.65-1.975-4.693-1.393-6.625a8.217,8.217,0,0,1,2.073-3.3,22.711,22.711,0,0,1,4.6-3.506l16.337-9.911c27.147-16.469,82.68-50.158,124.47-75.506a425.8,425.8,0,0,1-56.271-48.408,426.079,426.079,0,0,1-46.981-57.45,423.476,423.476,0,0,1-36.412-65.166,420.722,420.722,0,0,1-24.564-71.555l62.97-39.983a7.533,7.533,0,0,0,2.339-10.27,7.27,7.27,0,0,0-6.225-3.5,7.239,7.239,0,0,0-3.886,1.135l-58.662,37.251a423.247,423.247,0,0,1-6.812-45.746,429.063,429.063,0,0,1-1.776-47.171l3.659-209.726-93.785,59.208a14.177,14.177,0,0,1-7.372,2.335c-2.476,0-4.382-.892-5.368-2.513-2-3.275.475-8.522,5.508-11.7l101.308-63.959.375-21.349,134.743-79.05a7.538,7.538,0,0,0,2.694-10.184,7.334,7.334,0,0,0-6.354-3.722,7.268,7.268,0,0,0-3.671,1l-127.109,74.574.334-19.056-60.573,37.376a3.742,3.742,0,0,1-2,.543c-2.659,0-5.845-2.353-7.926-5.856-2.747-4.613-2.763-9.735-.034-11.418l70.933-43.772,8.358-478.9,845.09,14.751-13.724,786.167c-.249,14.258-1.219,28.626-2.882,42.7-1.638,13.872-3.991,27.805-6.993,41.414-2.962,13.424-6.628,26.855-10.9,39.921-4.219,12.914-9.128,25.775-14.591,38.226a422.681,422.681,0,0,1-39.425,70.558,425.642,425.642,0,0,1-51.69,61.354,425.779,425.779,0,0,1-62.279,50.534,422.945,422.945,0,0,1-71.2,38.1c-12.525,5.228-25.451,9.9-38.418,13.88-13.105,4.026-26.57,7.446-40.02,10.165-13.619,2.754-27.552,4.856-41.412,6.248-14.06,1.412-28.391,2.129-42.595,2.129h-.438c-2.211,0-4.527-.021-7.081-.065-12.569-.219-25.247-1-37.68-2.318-12.272-1.3-24.619-3.161-36.7-5.527a420.754,420.754,0,0,1-69.891-20.112l-48.183,29.4a6.6,6.6,0,0,1-3.428,1.067,6.664,6.664,0,0,1-4.481-2,20,20,0,0,1-3.54-4.627c-1.558-2.643-2.21-4.553-2.113-6.192a4.889,4.889,0,0,1,.942-2.622,9.063,9.063,0,0,1,2.733-2.383l35.895-21.9c-8.239-3.722-16.454-7.757-24.416-11.992l63.852-39a7.535,7.535,0,0,0,2.521-10.227,7.375,7.375,0,0,0-2.729-2.675,7.283,7.283,0,0,0-3.562-.934,7.245,7.245,0,0,0-3.776,1.067l-71.17,43.466c-5.21-3.048-10.421-6.25-15.49-9.516l-148.679,90.193A13.773,13.773,0,0,1-12086.948,1275.383Z" transform="matrix(0.848, 0.53, -0.53, 0.848, 11744.147, 6077.688)" fill="url(#linear-gradient)"/>
  </g>
</svg>
