<svg xmlns="http://www.w3.org/2000/svg" xmlns:xlink="http://www.w3.org/1999/xlink" width="1145.619" height="1068" viewBox="0 0 1145.619 1068">
  <defs>
    <style>
      .cls-1 {
        fill: url(#linear-gradient);
      }

      .cls-2, .cls-3 {
        stroke: none;
      }

      .cls-3 {
        fill: #707070;
      }
    </style>
    <linearGradient id="linear-gradient" y1="0.986" x2="1" y2="0.019" gradientUnits="objectBoundingBox">
      <stop offset="0" stop-color="#2a25af"/>
      <stop offset="1" stop-color="#9540e9"/>
    </linearGradient>
  </defs>
  <g id="Path_1" data-name="Path 1" class="cls-1" transform="translate(130.619)">
    <path class="cls-2" d="M 1014.5 1067.5 L -129.7140197753906 1067.5 C -128.6218566894531 1065.75146484375 -125.734977722168 1061.066284179688 -121.6016998291016 1053.88720703125 C -116.7020111083984 1045.376953125 -108.9960098266602 1031.51708984375 -100.1093978881836 1013.81787109375 C -90.12155151367188 993.925537109375 -80.70832061767578 973.3364868164063 -72.13108825683594 952.6224365234375 C -61.40924072265625 926.7293701171875 -51.97093200683594 900.5667724609375 -44.07801055908203 874.8613891601563 C -23.9846248626709 809.4208984375 -13.6637020111084 746.5101318359375 -13.40200996398926 687.8767700195313 C -13.07493305206299 614.5633544921875 -28.56277847290039 547.76953125 -59.435546875 489.3506164550781 C -67.65908813476563 473.7897033691406 -74.91862487792969 457.7780151367188 -81.01247406005859 441.7604675292969 C -86.84123992919922 426.4400024414063 -91.75846862792969 410.7069091796875 -95.62785339355469 394.9983215332031 C -99.31708526611328 380.0204467773438 -102.1509323120117 364.6695251464844 -104.0509338378906 349.3718566894531 C -105.8558578491211 334.838623046875 -106.8649368286133 319.9732360839844 -107.0503158569336 305.1886291503906 C -107.6918563842773 254.0352325439453 -98.64846801757813 201.5089263916016 -80.17108917236328 149.0684661865234 C -72.91078186035156 128.4630737304688 -64.15847015380859 107.8216934204102 -54.15739440917969 87.71753692626953 C -46.15570068359375 71.63276672363281 -37.34123992919922 55.85400009155273 -27.95893287658691 40.81938552856445 C -19.61077880859375 27.44215393066406 -12.34908676147461 17.1430778503418 -7.727394580841064 10.85892295837402 C -3.33788800239563 4.890591144561768 -0.4348247051239014 1.316233277320862 0.2356649935245514 0.5 L 1014.5 0.5 L 1014.5 1067.5 Z"/>
    <path class="cls-3" d="M 0.47247314453125 1 C -0.409423828125 2.0802001953125 -3.21844482421875 5.5712890625 -7.33734130859375 11.172607421875 C -11.955322265625 17.4525146484375 -19.21099853515625 27.7445068359375 -27.5521240234375 41.1121826171875 C -36.92596435546875 56.13507080078125 -45.73211669921875 71.9013671875 -53.7259521484375 87.97308349609375 C -63.7164306640625 108.05908203125 -72.45904541015625 128.681396484375 -79.71087646484375 149.2672119140625 C -98.16351318359375 201.6484375 -107.1934814453125 254.1129150390625 -106.5501098632813 305.2030639648438 C -106.3640747070313 319.9678344726563 -105.3556518554688 334.8130493164063 -103.5525512695313 349.3264770507813 C -101.6547241210938 364.6029052734375 -98.8240966796875 379.9327392578125 -95.13946533203125 394.8898315429688 C -91.2750244140625 410.5770874023438 -86.36407470703125 426.2886352539063 -80.54302978515625 441.5883178710938 C -74.45672607421875 457.5848999023438 -67.2064208984375 473.5758666992188 -58.99334716796875 489.1170654296875 C -28.081787109375 547.609375 -12.57440185546875 614.482421875 -12.9019775390625 687.8790893554688 C -13.163818359375 746.5614013671875 -23.49224853515625 809.520751953125 -43.60009765625 875.0081787109375 C -51.49749755859375 900.7286376953125 -60.94134521484375 926.9061279296875 -71.669189453125 952.813720703125 C -80.25103759765625 973.5389404296875 -89.6693115234375 994.1390991210938 -99.66253662109375 1014.042175292969 C -108.5545654296875 1031.751953125 -116.2655029296875 1045.620727539063 -121.1685791015625 1054.136596679688 C -124.8038330078125 1060.450805664063 -127.47705078125 1064.839477539063 -128.8145751953125 1067 L 1014.000061035156 1067 L 1014.000061035156 1 L 0.47247314453125 1 M 6.103515625e-05 0 L 1015.000061035156 0 L 1015.000061035156 1068 L -130.6193237304688 1068 C -130.6193237304688 1068 75.30218505859375 745.377685546875 -59.87750244140625 489.5842895507813 C -195.0571899414063 233.7908935546875 6.103515625e-05 0 6.103515625e-05 0 Z"/>
  </g>
</svg>
