<svg xmlns="http://www.w3.org/2000/svg" xmlns:xlink="http://www.w3.org/1999/xlink" width="1920" height="1080" viewBox="0 0 1920 1080">
  <defs>
    <linearGradient id="linear-gradient" y1="0.986" x2="1" y2="0.019" gradientUnits="objectBoundingBox">
      <stop offset="0" stop-color="#2a25af"/>
      <stop offset="1" stop-color="#9540e9"/>
    </linearGradient>
    <clipPath id="clip-Web_1920_2">
      <rect width="1920" height="1080"/>
    </clipPath>
  </defs>
  <g id="Web_1920_2" data-name="Web 1920 – 2" clip-path="url(#clip-Web_1920_2)">
    <rect width="1920" height="1080" fill="#fff"/>
    <g id="Path_1" data-name="Path 1" transform="translate(1018.799)" fill="url(#linear-gradient)">
      <path d="M 900.7015991210938 1067.5 L -129.7618255615234 1067.5 C -127.5320281982422 1063.533081054688 -116.7660140991211 1044.048217773438 -103.0869522094727 1013.799438476563 C -94.09162139892578 993.90771484375 -85.61362457275391 973.3192138671875 -77.88855743408203 952.6058959960938 C -68.23215484619141 926.7138671875 -59.73162078857422 900.55224609375 -52.62308883666992 874.8480224609375 C -34.52668762207031 809.4114379882813 -25.23162269592285 746.5053100585938 -24.99588966369629 687.8766479492188 C -24.70135688781738 614.570556640625 -38.64949035644531 547.7830810546875 -66.45308685302734 489.3693237304688 C -73.86015319824219 473.8074645996094 -80.39908599853516 457.7947998046875 -85.88802337646484 441.7762756347656 C -91.13815307617188 426.4545288085938 -95.56735229492188 410.7200012207031 -99.05268859863281 395.0098571777344 C -102.3758926391602 380.0302734375 -104.9285583496094 364.6776123046875 -106.639892578125 349.3781433105469 C -108.265754699707 334.8432006835938 -109.1748199462891 319.9760131835938 -109.3418884277344 305.189453125 C -109.9197540283203 254.0306701660156 -101.7738876342773 201.4992065429688 -85.13055419921875 149.0540008544922 C -78.59108734130859 128.4474639892578 -70.7078857421875 107.804931640625 -61.69975662231445 87.69986724853516 C -54.49269104003906 71.61453247070313 -46.55348968505859 55.83520126342773 -38.10282135009766 40.80013275146484 C -30.58375549316406 27.42266654968262 -24.04335594177246 17.12346649169922 -19.88068962097168 10.83906650543213 C -15.95831489562988 4.917589664459229 -13.35388946533203 1.352871656417847 -12.72339630126953 0.5 L 900.7015991210938 0.5 L 900.7015991210938 1067.5 Z" stroke="none"/>
      <path d="M -12.4708251953125 1 C -13.29669189453125 2.1243896484375 -15.81036376953125 5.598876953125 -19.4757080078125 11.1329345703125 C -23.635009765625 17.4130859375 -30.17022705078125 27.705322265625 -37.68304443359375 41.0736083984375 C -46.126220703125 56.09747314453125 -54.05810546875 71.86480712890625 -61.25836181640625 87.9376220703125 C -70.2574462890625 108.0255737304688 -78.13232421875 128.6502685546875 -84.66448974609375 149.2384033203125 C -101.2869873046875 201.6290893554688 -109.42138671875 254.103759765625 -108.8416748046875 305.205078125 C -108.6741943359375 319.9733276367188 -107.7655639648438 334.8221435546875 -106.1412963867188 349.3389282226563 C -104.431396484375 364.6190795898438 -101.8814086914063 379.952392578125 -98.56207275390625 394.9127807617188 C -95.08087158203125 410.6029052734375 -90.6568603515625 426.3174438476563 -85.41302490234375 441.6199951171875 C -79.93072509765625 457.61865234375 -73.39984130859375 473.611572265625 -66.001708984375 489.154541015625 C -38.16552734375 547.6365356445313 -24.20098876953125 614.4969482421875 -24.4959716796875 687.878662109375 C -24.7318115234375 746.5516357421875 -34.03302001953125 809.5020141601563 -52.14117431640625 874.981201171875 C -59.2535400390625 900.699462890625 -67.75860595703125 926.8749389648438 -77.42010498046875 952.7806396484375 C -85.14898681640625 973.5045166015625 -93.63128662109375 994.1035766601563 -102.6312866210938 1014.005615234375 C -110.6395263671875 1031.71435546875 -117.5843505859375 1045.58251953125 -122.0000610351563 1054.098022460938 C -125.2939453125 1060.4501953125 -127.7109985351563 1064.853759765625 -128.908203125 1067 L 900.2015380859375 1067 L 900.2015380859375 1 L -12.4708251953125 1 M -12.974853515625 0 L 901.2015380859375 0 L 901.2015380859375 1068 L -130.6192626953125 1068 C -130.6192626953125 1068 54.84722900390625 745.3777465820313 -66.90460205078125 489.5842895507813 C -188.6563720703125 233.7909545898438 -12.974853515625 0 -12.974853515625 0 Z" stroke="none" fill="#707070"/>
    </g>
  </g>
</svg>
